<mxfile host="app.diagrams.net" agent="Mozilla/5.0 (Windows NT 10.0; Win64; x64) AppleWebKit/537.36 (KHTML, like Gecko) Chrome/131.0.0.0 Safari/537.36" version="25.0.3">
  <diagram name="Page-1" id="OvvJT-6W2Nh3rVr6hf-L">
    <mxGraphModel dx="1554" dy="1821" grid="1" gridSize="10" guides="1" tooltips="1" connect="1" arrows="1" fold="1" page="1" pageScale="1" pageWidth="850" pageHeight="1100" math="0" shadow="0">
      <root>
        <mxCell id="0" />
        <mxCell id="1" parent="0" />
        <mxCell id="UHIjol0wDiYLH9RskCav-1" value="User" style="swimlane;fontStyle=1;align=center;verticalAlign=top;childLayout=stackLayout;horizontal=1;startSize=26;horizontalStack=0;resizeParent=1;resizeParentMax=0;resizeLast=0;collapsible=1;marginBottom=0;whiteSpace=wrap;html=1;" parent="1" vertex="1">
          <mxGeometry x="300" y="-10" width="270" height="430" as="geometry" />
        </mxCell>
        <mxCell id="UHIjol0wDiYLH9RskCav-2" value="&lt;span class=&quot;hljs-operator&quot;&gt;-&lt;/span&gt; &lt;span class=&quot;hljs-variable&quot;&gt;userId&lt;/span&gt;&lt;span class=&quot;hljs-operator&quot;&gt;:&lt;/span&gt; &lt;span class=&quot;hljs-built_in&quot;&gt;String&lt;/span&gt;&lt;br&gt;&lt;span class=&quot;hljs-operator&quot;&gt;-&lt;/span&gt; &lt;span class=&quot;hljs-variable&quot;&gt;email&lt;/span&gt;&lt;span class=&quot;hljs-operator&quot;&gt;:&lt;/span&gt; &lt;span class=&quot;hljs-built_in&quot;&gt;String&lt;/span&gt;&lt;br&gt;&lt;span class=&quot;hljs-operator&quot;&gt;-&lt;/span&gt; &lt;span class=&quot;hljs-variable&quot;&gt;username&lt;/span&gt;&lt;span class=&quot;hljs-operator&quot;&gt;:&lt;/span&gt; &lt;span class=&quot;hljs-built_in&quot;&gt;String&lt;/span&gt;&lt;br&gt;&lt;span class=&quot;hljs-operator&quot;&gt;-&lt;/span&gt; &lt;span class=&quot;hljs-variable&quot;&gt;password&lt;/span&gt;&lt;span class=&quot;hljs-operator&quot;&gt;:&lt;/span&gt; &lt;span class=&quot;hljs-built_in&quot;&gt;String&lt;/span&gt;&lt;br&gt;&lt;span class=&quot;hljs-operator&quot;&gt;-&lt;/span&gt; &lt;span class=&quot;hljs-variable&quot;&gt;dateOfBirth&lt;/span&gt;&lt;span class=&quot;hljs-operator&quot;&gt;:&lt;/span&gt; &lt;span class=&quot;hljs-built_in&quot;&gt;String&lt;/span&gt;&lt;br&gt;&lt;span class=&quot;hljs-operator&quot;&gt;-&lt;/span&gt; &lt;span class=&quot;hljs-variable&quot;&gt;status&lt;/span&gt;&lt;span class=&quot;hljs-operator&quot;&gt;:&lt;/span&gt; &lt;span class=&quot;hljs-built_in&quot;&gt;String&lt;/span&gt;&amp;nbsp;&lt;div&gt;&amp;nbsp;&lt;span class=&quot;hljs-operator&quot;&gt;-&lt;/span&gt; &lt;span class=&quot;hljs-variable&quot;&gt;friends&lt;/span&gt;&lt;span class=&quot;hljs-operator&quot;&gt;:&lt;/span&gt; &lt;span class=&quot;hljs-built_in&quot;&gt;List&lt;/span&gt;&lt;span class=&quot;hljs-operator&quot;&gt;&amp;lt;&lt;/span&gt;&lt;span class=&quot;hljs-built_in&quot;&gt;String&lt;/span&gt;&lt;span class=&quot;hljs-operator&quot;&gt;&amp;gt;&lt;/span&gt;&amp;nbsp;&lt;br&gt;&lt;span class=&quot;hljs-operator&quot;&gt;-&lt;/span&gt; &lt;span class=&quot;hljs-variable&quot;&gt;friendRequests&lt;/span&gt;&lt;span class=&quot;hljs-operator&quot;&gt;:&lt;/span&gt; &lt;span class=&quot;hljs-built_in&quot;&gt;List&lt;/span&gt;&lt;span class=&quot;hljs-operator&quot;&gt;&amp;lt;&lt;/span&gt;&lt;span class=&quot;hljs-built_in&quot;&gt;String&lt;/span&gt;&lt;span class=&quot;hljs-operator&quot;&gt;&amp;gt;&lt;/span&gt;&amp;nbsp;&lt;br&gt;&lt;span class=&quot;hljs-operator&quot;&gt;-&lt;/span&gt; &lt;span class=&quot;hljs-variable&quot;&gt;blockedUsers&lt;/span&gt;&lt;span class=&quot;hljs-operator&quot;&gt;:&lt;/span&gt; &lt;span class=&quot;hljs-built_in&quot;&gt;List&lt;/span&gt;&lt;span class=&quot;hljs-operator&quot;&gt;&amp;lt;&lt;/span&gt;&lt;span class=&quot;hljs-built_in&quot;&gt;String&lt;/span&gt;&lt;span class=&quot;hljs-operator&quot;&gt;&amp;gt;&lt;/span&gt;&amp;nbsp;&lt;br&gt;&lt;span class=&quot;hljs-operator&quot;&gt;-&lt;/span&gt; &lt;span class=&quot;hljs-variable&quot;&gt;suggested&lt;/span&gt;&lt;span class=&quot;hljs-operator&quot;&gt;:&lt;/span&gt; &lt;span class=&quot;hljs-built_in&quot;&gt;List&lt;/span&gt;&lt;span class=&quot;hljs-operator&quot;&gt;&amp;lt;&lt;/span&gt;&lt;span class=&quot;hljs-built_in&quot;&gt;String&lt;/span&gt;&lt;span class=&quot;hljs-operator&quot;&gt;&amp;gt;&lt;/span&gt;&amp;nbsp;&lt;/div&gt;" style="text;strokeColor=none;fillColor=none;align=left;verticalAlign=top;spacingLeft=4;spacingRight=4;overflow=hidden;rotatable=0;points=[[0,0.5],[1,0.5]];portConstraint=eastwest;whiteSpace=wrap;html=1;" parent="UHIjol0wDiYLH9RskCav-1" vertex="1">
          <mxGeometry y="26" width="270" height="154" as="geometry" />
        </mxCell>
        <mxCell id="UHIjol0wDiYLH9RskCav-3" value="" style="line;strokeWidth=1;fillColor=none;align=left;verticalAlign=middle;spacingTop=-1;spacingLeft=3;spacingRight=3;rotatable=0;labelPosition=right;points=[];portConstraint=eastwest;strokeColor=inherit;" parent="UHIjol0wDiYLH9RskCav-1" vertex="1">
          <mxGeometry y="180" width="270" height="8" as="geometry" />
        </mxCell>
        <mxCell id="UHIjol0wDiYLH9RskCav-4" value="&lt;span class=&quot;hljs-operator&quot;&gt;+&lt;/span&gt; &lt;span class=&quot;hljs-variable&quot;&gt;getUserId&lt;/span&gt;&lt;span class=&quot;hljs-punctuation&quot;&gt;(&lt;/span&gt;&lt;span class=&quot;hljs-punctuation&quot;&gt;)&lt;/span&gt;&lt;span class=&quot;hljs-operator&quot;&gt;:&lt;/span&gt; &lt;span class=&quot;hljs-built_in&quot;&gt;String&lt;/span&gt;&amp;nbsp;&lt;div&gt;&amp;nbsp;&lt;span class=&quot;hljs-operator&quot;&gt;+&lt;/span&gt; &lt;span class=&quot;hljs-variable&quot;&gt;setUserId&lt;/span&gt;&lt;span class=&quot;hljs-punctuation&quot;&gt;(&lt;/span&gt;&lt;span class=&quot;hljs-variable&quot;&gt;userId&lt;/span&gt;&lt;span class=&quot;hljs-operator&quot;&gt;:&lt;/span&gt; &lt;span class=&quot;hljs-built_in&quot;&gt;String&lt;/span&gt;&lt;span class=&quot;hljs-punctuation&quot;&gt;)&lt;/span&gt;&amp;nbsp;&lt;br&gt;&amp;nbsp;&lt;span class=&quot;hljs-operator&quot;&gt;+&lt;/span&gt; &lt;span class=&quot;hljs-variable&quot;&gt;getEmail&lt;/span&gt;&lt;span class=&quot;hljs-punctuation&quot;&gt;(&lt;/span&gt;&lt;span class=&quot;hljs-punctuation&quot;&gt;)&lt;/span&gt;&lt;span class=&quot;hljs-operator&quot;&gt;:&lt;/span&gt; &lt;span class=&quot;hljs-built_in&quot;&gt;String&lt;/span&gt;&amp;nbsp;&lt;/div&gt;&lt;div&gt;&amp;nbsp;&lt;span class=&quot;hljs-operator&quot;&gt;+&lt;/span&gt; &lt;span class=&quot;hljs-variable&quot;&gt;setEmail&lt;/span&gt;&lt;span class=&quot;hljs-punctuation&quot;&gt;(&lt;/span&gt;&lt;span class=&quot;hljs-variable&quot;&gt;email&lt;/span&gt;&lt;span class=&quot;hljs-operator&quot;&gt;:&lt;/span&gt; &lt;span class=&quot;hljs-built_in&quot;&gt;String&lt;/span&gt;&lt;span class=&quot;hljs-punctuation&quot;&gt;)&lt;/span&gt;&amp;nbsp;&lt;br&gt;&amp;nbsp;&lt;span class=&quot;hljs-operator&quot;&gt;+&lt;/span&gt; &lt;span class=&quot;hljs-variable&quot;&gt;getUsername&lt;/span&gt;&lt;span class=&quot;hljs-punctuation&quot;&gt;(&lt;/span&gt;&lt;span class=&quot;hljs-punctuation&quot;&gt;)&lt;/span&gt;&lt;span class=&quot;hljs-operator&quot;&gt;:&lt;/span&gt; &lt;span class=&quot;hljs-built_in&quot;&gt;String&lt;/span&gt;&amp;nbsp;&lt;br&gt;&amp;nbsp;&lt;span class=&quot;hljs-operator&quot;&gt;+&lt;/span&gt; &lt;span class=&quot;hljs-variable&quot;&gt;setUsername&lt;/span&gt;&lt;span class=&quot;hljs-punctuation&quot;&gt;(&lt;/span&gt;&lt;span class=&quot;hljs-variable&quot;&gt;username&lt;/span&gt;&lt;span class=&quot;hljs-operator&quot;&gt;:&lt;/span&gt; &lt;span class=&quot;hljs-built_in&quot;&gt;String&lt;/span&gt;&lt;span class=&quot;hljs-punctuation&quot;&gt;)&lt;/span&gt;&amp;nbsp;&lt;br&gt;&amp;nbsp;&lt;span class=&quot;hljs-operator&quot;&gt;+&lt;/span&gt; &lt;span class=&quot;hljs-variable&quot;&gt;getPassword&lt;/span&gt;&lt;span class=&quot;hljs-punctuation&quot;&gt;(&lt;/span&gt;&lt;span class=&quot;hljs-punctuation&quot;&gt;)&lt;/span&gt;&lt;span class=&quot;hljs-operator&quot;&gt;:&lt;/span&gt; &lt;span class=&quot;hljs-built_in&quot;&gt;String&lt;/span&gt;&amp;nbsp;&lt;br&gt;&amp;nbsp;&lt;span class=&quot;hljs-operator&quot;&gt;+&lt;/span&gt; &lt;span class=&quot;hljs-variable&quot;&gt;setPassword&lt;/span&gt;&lt;span class=&quot;hljs-punctuation&quot;&gt;(&lt;/span&gt;&lt;span class=&quot;hljs-variable&quot;&gt;password&lt;/span&gt;&lt;span class=&quot;hljs-operator&quot;&gt;:&lt;/span&gt; &lt;span class=&quot;hljs-built_in&quot;&gt;String&lt;/span&gt;&lt;span class=&quot;hljs-punctuation&quot;&gt;)&lt;/span&gt;&amp;nbsp;&lt;br&gt;&amp;nbsp;&lt;span class=&quot;hljs-operator&quot;&gt;+&lt;/span&gt; &lt;span class=&quot;hljs-variable&quot;&gt;getDateOfBirth&lt;/span&gt;&lt;span class=&quot;hljs-punctuation&quot;&gt;(&lt;/span&gt;&lt;span class=&quot;hljs-punctuation&quot;&gt;)&lt;/span&gt;&lt;span class=&quot;hljs-operator&quot;&gt;:&lt;/span&gt; &lt;span class=&quot;hljs-built_in&quot;&gt;String&lt;/span&gt;&amp;nbsp;&lt;/div&gt;&lt;div&gt;&amp;nbsp;&lt;span class=&quot;hljs-operator&quot;&gt;+&lt;/span&gt; &lt;span class=&quot;hljs-variable&quot;&gt;setDateOfBirth&lt;/span&gt;&lt;span class=&quot;hljs-punctuation&quot;&gt;(&lt;/span&gt;&lt;span class=&quot;hljs-variable&quot;&gt;dateOfBirth&lt;/span&gt;&lt;span class=&quot;hljs-operator&quot;&gt;:&lt;/span&gt; &lt;span class=&quot;hljs-built_in&quot;&gt;String&lt;/span&gt;&lt;span class=&quot;hljs-punctuation&quot;&gt;)&lt;/span&gt;&amp;nbsp;&lt;br&gt;&amp;nbsp;&lt;span class=&quot;hljs-operator&quot;&gt;+&lt;/span&gt; &lt;span class=&quot;hljs-variable&quot;&gt;getStatus&lt;/span&gt;&lt;span class=&quot;hljs-punctuation&quot;&gt;(&lt;/span&gt;&lt;span class=&quot;hljs-punctuation&quot;&gt;)&lt;/span&gt;&lt;span class=&quot;hljs-operator&quot;&gt;:&lt;/span&gt; &lt;span class=&quot;hljs-built_in&quot;&gt;String&lt;/span&gt;&amp;nbsp;&lt;br&gt;&amp;nbsp;&lt;span class=&quot;hljs-operator&quot;&gt;+&lt;/span&gt; &lt;span class=&quot;hljs-variable&quot;&gt;setStatus&lt;/span&gt;&lt;span class=&quot;hljs-punctuation&quot;&gt;(&lt;/span&gt;&lt;span class=&quot;hljs-variable&quot;&gt;status&lt;/span&gt;&lt;span class=&quot;hljs-operator&quot;&gt;:&lt;/span&gt; &lt;span class=&quot;hljs-built_in&quot;&gt;String&lt;/span&gt;&lt;span class=&quot;hljs-punctuation&quot;&gt;)&lt;/span&gt;&amp;nbsp;&lt;br&gt;&amp;nbsp;&lt;span class=&quot;hljs-operator&quot;&gt;+&lt;/span&gt; &lt;span class=&quot;hljs-variable&quot;&gt;getFriends&lt;/span&gt;&lt;span class=&quot;hljs-punctuation&quot;&gt;(&lt;/span&gt;&lt;span class=&quot;hljs-punctuation&quot;&gt;)&lt;/span&gt;&lt;span class=&quot;hljs-operator&quot;&gt;:&lt;/span&gt; &lt;span class=&quot;hljs-built_in&quot;&gt;List&lt;/span&gt;&lt;span class=&quot;hljs-operator&quot;&gt;&amp;lt;&lt;/span&gt;&lt;span class=&quot;hljs-built_in&quot;&gt;String&lt;/span&gt;&lt;span class=&quot;hljs-operator&quot;&gt;&amp;gt;&lt;/span&gt;&amp;nbsp;&lt;br&gt;&amp;nbsp;&lt;span class=&quot;hljs-operator&quot;&gt;+&lt;/span&gt; &lt;span class=&quot;hljs-variable&quot;&gt;getFriendRequests&lt;/span&gt;&lt;span class=&quot;hljs-punctuation&quot;&gt;(&lt;/span&gt;&lt;span class=&quot;hljs-punctuation&quot;&gt;)&lt;/span&gt;&lt;span class=&quot;hljs-operator&quot;&gt;:&lt;/span&gt; &lt;span class=&quot;hljs-built_in&quot;&gt;List&lt;/span&gt;&lt;span class=&quot;hljs-operator&quot;&gt;&amp;lt;&lt;/span&gt;&lt;span class=&quot;hljs-built_in&quot;&gt;String&lt;/span&gt;&lt;span class=&quot;hljs-operator&quot;&gt;&amp;gt;&lt;/span&gt;&amp;nbsp;&lt;br&gt;&amp;nbsp;&lt;span class=&quot;hljs-operator&quot;&gt;+&lt;/span&gt; &lt;span class=&quot;hljs-variable&quot;&gt;getBlockedUsers&lt;/span&gt;&lt;span class=&quot;hljs-punctuation&quot;&gt;(&lt;/span&gt;&lt;span class=&quot;hljs-punctuation&quot;&gt;)&lt;/span&gt;&lt;span class=&quot;hljs-operator&quot;&gt;:&lt;/span&gt; &lt;span class=&quot;hljs-built_in&quot;&gt;List&lt;/span&gt;&lt;span class=&quot;hljs-operator&quot;&gt;&amp;lt;&lt;/span&gt;&lt;span class=&quot;hljs-built_in&quot;&gt;String&lt;/span&gt;&lt;span class=&quot;hljs-operator&quot;&gt;&amp;gt;&lt;/span&gt;&amp;nbsp;&lt;br&gt;&amp;nbsp;&lt;span class=&quot;hljs-operator&quot;&gt;+&lt;/span&gt; &lt;span class=&quot;hljs-variable&quot;&gt;getSuggested&lt;/span&gt;&lt;span class=&quot;hljs-punctuation&quot;&gt;(&lt;/span&gt;&lt;span class=&quot;hljs-punctuation&quot;&gt;)&lt;/span&gt;&lt;span class=&quot;hljs-operator&quot;&gt;:&lt;/span&gt; &lt;span class=&quot;hljs-built_in&quot;&gt;List&lt;/span&gt;&lt;span class=&quot;hljs-operator&quot;&gt;&amp;lt;&lt;/span&gt;&lt;span class=&quot;hljs-built_in&quot;&gt;String&lt;/span&gt;&lt;span class=&quot;hljs-operator&quot;&gt;&amp;gt;&lt;/span&gt;&lt;/div&gt;" style="text;strokeColor=none;fillColor=none;align=left;verticalAlign=top;spacingLeft=4;spacingRight=4;overflow=hidden;rotatable=0;points=[[0,0.5],[1,0.5]];portConstraint=eastwest;whiteSpace=wrap;html=1;" parent="UHIjol0wDiYLH9RskCav-1" vertex="1">
          <mxGeometry y="188" width="270" height="242" as="geometry" />
        </mxCell>
        <mxCell id="UHIjol0wDiYLH9RskCav-6" value="Friend" style="swimlane;fontStyle=1;align=center;verticalAlign=top;childLayout=stackLayout;horizontal=1;startSize=26;horizontalStack=0;resizeParent=1;resizeParentMax=0;resizeLast=0;collapsible=1;marginBottom=0;whiteSpace=wrap;html=1;" parent="1" vertex="1">
          <mxGeometry x="-30" y="130" width="160" height="180" as="geometry" />
        </mxCell>
        <mxCell id="UHIjol0wDiYLH9RskCav-7" value="&lt;div&gt;&lt;span class=&quot;hljs-operator&quot;&gt;-&lt;/span&gt; &lt;span class=&quot;hljs-variable&quot;&gt;u&lt;/span&gt;&lt;span class=&quot;hljs-operator&quot;&gt;:&lt;/span&gt; &lt;span class=&quot;hljs-variable&quot;&gt;User&lt;/span&gt;&lt;/div&gt;&lt;div&gt;&lt;span class=&quot;hljs-variable&quot;&gt;&lt;span class=&quot;hljs-operator&quot;&gt;-&lt;/span&gt; &lt;span class=&quot;hljs-variable&quot;&gt;friend&lt;/span&gt;&lt;span class=&quot;hljs-operator&quot;&gt;:&lt;/span&gt; &lt;span class=&quot;hljs-variable&quot;&gt;User&lt;/span&gt;&lt;/span&gt;&lt;/div&gt;+file: File" style="text;strokeColor=none;fillColor=none;align=left;verticalAlign=top;spacingLeft=4;spacingRight=4;overflow=hidden;rotatable=0;points=[[0,0.5],[1,0.5]];portConstraint=eastwest;whiteSpace=wrap;html=1;" parent="UHIjol0wDiYLH9RskCav-6" vertex="1">
          <mxGeometry y="26" width="160" height="54" as="geometry" />
        </mxCell>
        <mxCell id="UHIjol0wDiYLH9RskCav-8" value="" style="line;strokeWidth=1;fillColor=none;align=left;verticalAlign=middle;spacingTop=-1;spacingLeft=3;spacingRight=3;rotatable=0;labelPosition=right;points=[];portConstraint=eastwest;strokeColor=inherit;" parent="UHIjol0wDiYLH9RskCav-6" vertex="1">
          <mxGeometry y="80" width="160" height="8" as="geometry" />
        </mxCell>
        <mxCell id="UHIjol0wDiYLH9RskCav-9" value="&lt;span class=&quot;hljs-operator&quot;&gt;+&lt;/span&gt; &lt;span class=&quot;hljs-variable&quot;&gt;sendFriendRequest&lt;/span&gt;&lt;span class=&quot;hljs-punctuation&quot;&gt;(&lt;/span&gt;&lt;span class=&quot;hljs-punctuation&quot;&gt;)&lt;/span&gt;&lt;div&gt;&lt;span class=&quot;hljs-punctuation&quot;&gt;&lt;span class=&quot;hljs-operator&quot;&gt;+&lt;/span&gt; &lt;span class=&quot;hljs-variable&quot;&gt;blocking&lt;/span&gt;&lt;span class=&quot;hljs-punctuation&quot;&gt;(&lt;/span&gt;&lt;span class=&quot;hljs-punctuation&quot;&gt;)&lt;/span&gt;&lt;/span&gt;&lt;/div&gt;&lt;div&gt;&lt;span class=&quot;hljs-punctuation&quot;&gt;&lt;span class=&quot;hljs-operator&quot;&gt;+&lt;/span&gt; &lt;span class=&quot;hljs-variable&quot;&gt;accept&lt;/span&gt;&lt;span class=&quot;hljs-punctuation&quot;&gt;(&lt;/span&gt;&lt;span class=&quot;hljs-punctuation&quot;&gt;)&lt;/span&gt;&amp;nbsp;&lt;/span&gt;&lt;/div&gt;&lt;div&gt;&lt;span class=&quot;hljs-punctuation&quot;&gt;&lt;span class=&quot;hljs-operator&quot;&gt;+&lt;/span&gt; &lt;span class=&quot;hljs-variable&quot;&gt;remove&lt;/span&gt;&lt;span class=&quot;hljs-punctuation&quot;&gt;(&lt;/span&gt;&lt;span class=&quot;hljs-punctuation&quot;&gt;)&lt;/span&gt;&amp;nbsp;&lt;/span&gt;&lt;/div&gt;&lt;div&gt;&lt;span class=&quot;hljs-punctuation&quot;&gt;&lt;span class=&quot;hljs-operator&quot;&gt;+&lt;/span&gt; &lt;span class=&quot;hljs-variable&quot;&gt;suggestions&lt;/span&gt;&lt;span class=&quot;hljs-punctuation&quot;&gt;(&lt;/span&gt;&lt;span class=&quot;hljs-punctuation&quot;&gt;)&lt;/span&gt;&lt;span class=&quot;hljs-operator&quot;&gt;:&lt;/span&gt; &lt;span class=&quot;hljs-built_in&quot;&gt;List&lt;/span&gt;&lt;span class=&quot;hljs-operator&quot;&gt;&amp;lt;&lt;/span&gt;&lt;span class=&quot;hljs-variable&quot;&gt;User&lt;/span&gt;&lt;span class=&quot;hljs-operator&quot;&gt;&amp;gt;&lt;/span&gt; &lt;span class=&quot;hljs-operator&quot;&gt;+&lt;/span&gt; &lt;span class=&quot;hljs-variable&quot;&gt;saveUsers&lt;/span&gt;&lt;span class=&quot;hljs-punctuation&quot;&gt;(&lt;/span&gt;&lt;span class=&quot;hljs-punctuation&quot;&gt;)&lt;/span&gt;&amp;nbsp;&lt;/span&gt;&lt;/div&gt;" style="text;strokeColor=none;fillColor=none;align=left;verticalAlign=top;spacingLeft=4;spacingRight=4;overflow=hidden;rotatable=0;points=[[0,0.5],[1,0.5]];portConstraint=eastwest;whiteSpace=wrap;html=1;" parent="UHIjol0wDiYLH9RskCav-6" vertex="1">
          <mxGeometry y="88" width="160" height="92" as="geometry" />
        </mxCell>
        <mxCell id="UHIjol0wDiYLH9RskCav-14" value="&lt;span class=&quot;hljs-variable&quot;&gt;Sighnin&lt;/span&gt;" style="swimlane;fontStyle=1;align=center;verticalAlign=top;childLayout=stackLayout;horizontal=1;startSize=26;horizontalStack=0;resizeParent=1;resizeParentMax=0;resizeLast=0;collapsible=1;marginBottom=0;whiteSpace=wrap;html=1;" parent="1" vertex="1">
          <mxGeometry x="-90" y="-140" width="300" height="190" as="geometry" />
        </mxCell>
        <mxCell id="UHIjol0wDiYLH9RskCav-15" value="&lt;span class=&quot;hljs-operator&quot;&gt;-&lt;/span&gt; &lt;span class=&quot;hljs-variable&quot;&gt;email&lt;/span&gt;&lt;span class=&quot;hljs-operator&quot;&gt;:&lt;/span&gt; &lt;span class=&quot;hljs-built_in&quot;&gt;String&lt;/span&gt;&lt;br&gt;&lt;span class=&quot;hljs-operator&quot;&gt;-&lt;/span&gt; &lt;span class=&quot;hljs-variable&quot;&gt;username&lt;/span&gt;&lt;span class=&quot;hljs-operator&quot;&gt;:&lt;/span&gt; &lt;span class=&quot;hljs-built_in&quot;&gt;String&lt;/span&gt;&lt;br&gt;&amp;nbsp;&lt;span class=&quot;hljs-operator&quot;&gt;-&lt;/span&gt; &lt;span class=&quot;hljs-variable&quot;&gt;password&lt;/span&gt;&lt;span class=&quot;hljs-operator&quot;&gt;:&lt;/span&gt; &lt;span class=&quot;hljs-built_in&quot;&gt;String&lt;/span&gt;&amp;nbsp;&lt;br&gt;&amp;nbsp;&lt;span class=&quot;hljs-operator&quot;&gt;-&lt;/span&gt; &lt;span class=&quot;hljs-variable&quot;&gt;dateOfBirth&lt;/span&gt;&lt;span class=&quot;hljs-operator&quot;&gt;:&lt;/span&gt; &lt;span class=&quot;hljs-built_in&quot;&gt;String&lt;/span&gt;&amp;nbsp;&lt;br&gt;&amp;nbsp;&lt;span class=&quot;hljs-operator&quot;&gt;-&lt;/span&gt; &lt;span class=&quot;hljs-variable&quot;&gt;file&lt;/span&gt;&lt;span class=&quot;hljs-operator&quot;&gt;:&lt;/span&gt; &lt;span class=&quot;hljs-built_in&quot;&gt;File&lt;/span&gt;" style="text;strokeColor=none;fillColor=none;align=left;verticalAlign=top;spacingLeft=4;spacingRight=4;overflow=hidden;rotatable=0;points=[[0,0.5],[1,0.5]];portConstraint=eastwest;whiteSpace=wrap;html=1;" parent="UHIjol0wDiYLH9RskCav-14" vertex="1">
          <mxGeometry y="26" width="300" height="84" as="geometry" />
        </mxCell>
        <mxCell id="UHIjol0wDiYLH9RskCav-16" value="" style="line;strokeWidth=1;fillColor=none;align=left;verticalAlign=middle;spacingTop=-1;spacingLeft=3;spacingRight=3;rotatable=0;labelPosition=right;points=[];portConstraint=eastwest;strokeColor=inherit;" parent="UHIjol0wDiYLH9RskCav-14" vertex="1">
          <mxGeometry y="110" width="300" height="8" as="geometry" />
        </mxCell>
        <mxCell id="UHIjol0wDiYLH9RskCav-17" value="&lt;span class=&quot;hljs-operator&quot;&gt;+&lt;/span&gt; &lt;span class=&quot;hljs-variable&quot;&gt;signIn&lt;/span&gt;&lt;span class=&quot;hljs-punctuation&quot;&gt;(&lt;/span&gt;&lt;span class=&quot;hljs-punctuation&quot;&gt;)&lt;/span&gt;&lt;span class=&quot;hljs-operator&quot;&gt;:&lt;/span&gt; &lt;span class=&quot;hljs-variable&quot;&gt;boolean&lt;/span&gt;&lt;div&gt;&lt;span style=&quot;background-color: initial;&quot; class=&quot;hljs-operator&quot;&gt;+&lt;/span&gt;&lt;span style=&quot;background-color: initial;&quot;&gt; &lt;/span&gt;&lt;span style=&quot;background-color: initial;&quot; class=&quot;hljs-variable&quot;&gt;emailValid&lt;/span&gt;&lt;span style=&quot;background-color: initial;&quot; class=&quot;hljs-punctuation&quot;&gt;(&lt;/span&gt;&lt;span style=&quot;background-color: initial;&quot; class=&quot;hljs-variable&quot;&gt;email&lt;/span&gt;&lt;span style=&quot;background-color: initial;&quot; class=&quot;hljs-operator&quot;&gt;:&lt;/span&gt;&lt;span style=&quot;background-color: initial;&quot;&gt; &lt;/span&gt;&lt;span style=&quot;background-color: initial;&quot; class=&quot;hljs-built_in&quot;&gt;String&lt;/span&gt;&lt;span style=&quot;background-color: initial;&quot; class=&quot;hljs-punctuation&quot;&gt;)&lt;/span&gt;&lt;span style=&quot;background-color: initial;&quot; class=&quot;hljs-operator&quot;&gt;:&lt;/span&gt;&lt;span style=&quot;background-color: initial;&quot;&gt;&amp;nbsp;&lt;/span&gt;&lt;span style=&quot;background-color: initial;&quot; class=&quot;hljs-variable&quot;&gt;boolean&lt;/span&gt;&lt;span style=&quot;background-color: initial;&quot;&gt;&amp;nbsp;&lt;/span&gt;&lt;span style=&quot;background-color: initial;&quot;&gt;&amp;nbsp;&lt;/span&gt;&lt;/div&gt;&lt;div&gt;&lt;span style=&quot;background-color: initial;&quot; class=&quot;hljs-operator&quot;&gt;+&lt;/span&gt;&lt;span style=&quot;background-color: initial;&quot;&gt; &lt;/span&gt;&lt;span style=&quot;background-color: initial;&quot; class=&quot;hljs-variable&quot;&gt;emailexist&lt;/span&gt;&lt;span style=&quot;background-color: initial;&quot; class=&quot;hljs-punctuation&quot;&gt;(&lt;/span&gt;&lt;span style=&quot;background-color: initial;&quot; class=&quot;hljs-variable&quot;&gt;email&lt;/span&gt;&lt;span style=&quot;background-color: initial;&quot; class=&quot;hljs-operator&quot;&gt;:&lt;/span&gt;&lt;span style=&quot;background-color: initial;&quot;&gt; &lt;/span&gt;&lt;span style=&quot;background-color: initial;&quot; class=&quot;hljs-built_in&quot;&gt;String&lt;/span&gt;&lt;span style=&quot;background-color: initial;&quot; class=&quot;hljs-operator&quot;&gt;,&lt;/span&gt;&lt;span style=&quot;background-color: initial;&quot;&gt; &lt;/span&gt;&lt;span style=&quot;background-color: initial;&quot; class=&quot;hljs-variable&quot;&gt;file&lt;/span&gt;&lt;span style=&quot;background-color: initial;&quot; class=&quot;hljs-operator&quot;&gt;:&lt;/span&gt;&lt;span style=&quot;background-color: initial;&quot;&gt; &lt;/span&gt;&lt;span style=&quot;background-color: initial;&quot; class=&quot;hljs-built_in&quot;&gt;File&lt;/span&gt;&lt;span style=&quot;background-color: initial;&quot; class=&quot;hljs-punctuation&quot;&gt;)&lt;/span&gt;&lt;span style=&quot;background-color: initial;&quot; class=&quot;hljs-operator&quot;&gt;:&lt;/span&gt;&lt;span style=&quot;background-color: initial;&quot;&gt; &lt;/span&gt;&lt;span style=&quot;background-color: initial;&quot; class=&quot;hljs-variable&quot;&gt;boolean&lt;/span&gt;&lt;span style=&quot;background-color: initial;&quot;&gt;&amp;nbsp;&lt;/span&gt;&lt;/div&gt;&lt;div&gt;&lt;span style=&quot;background-color: initial;&quot; class=&quot;hljs-operator&quot;&gt;+&lt;/span&gt;&lt;span style=&quot;background-color: initial;&quot;&gt; &lt;/span&gt;&lt;span style=&quot;background-color: initial;&quot; class=&quot;hljs-variable&quot;&gt;usernameexists&lt;/span&gt;&lt;span style=&quot;background-color: initial;&quot; class=&quot;hljs-punctuation&quot;&gt;(&lt;/span&gt;&lt;span style=&quot;background-color: initial;&quot; class=&quot;hljs-variable&quot;&gt;username&lt;/span&gt;&lt;span style=&quot;background-color: initial;&quot; class=&quot;hljs-operator&quot;&gt;:&lt;/span&gt;&lt;span style=&quot;background-color: initial;&quot;&gt; &lt;/span&gt;&lt;span style=&quot;background-color: initial;&quot; class=&quot;hljs-built_in&quot;&gt;String&lt;/span&gt;&lt;span style=&quot;background-color: initial;&quot; class=&quot;hljs-operator&quot;&gt;,&lt;/span&gt;&lt;span style=&quot;background-color: initial;&quot;&gt; &lt;/span&gt;&lt;span style=&quot;background-color: initial;&quot; class=&quot;hljs-variable&quot;&gt;file&lt;/span&gt;&lt;span style=&quot;background-color: initial;&quot; class=&quot;hljs-operator&quot;&gt;:&lt;/span&gt;&lt;span style=&quot;background-color: initial;&quot;&gt; &lt;/span&gt;&lt;span style=&quot;background-color: initial;&quot; class=&quot;hljs-built_in&quot;&gt;File&lt;/span&gt;&lt;span style=&quot;background-color: initial;&quot; class=&quot;hljs-punctuation&quot;&gt;)&lt;/span&gt;&lt;span style=&quot;background-color: initial;&quot; class=&quot;hljs-operator&quot;&gt;:&amp;nbsp;&lt;/span&gt;&lt;span style=&quot;background-color: initial;&quot; class=&quot;hljs-variable&quot;&gt;boolean&lt;/span&gt;&lt;/div&gt;" style="text;strokeColor=none;fillColor=none;align=left;verticalAlign=top;spacingLeft=4;spacingRight=4;overflow=hidden;rotatable=0;points=[[0,0.5],[1,0.5]];portConstraint=eastwest;whiteSpace=wrap;html=1;" parent="UHIjol0wDiYLH9RskCav-14" vertex="1">
          <mxGeometry y="118" width="300" height="72" as="geometry" />
        </mxCell>
        <mxCell id="UHIjol0wDiYLH9RskCav-18" value="userDatabase" style="swimlane;fontStyle=1;align=center;verticalAlign=top;childLayout=stackLayout;horizontal=1;startSize=26;horizontalStack=0;resizeParent=1;resizeParentMax=0;resizeLast=0;collapsible=1;marginBottom=0;whiteSpace=wrap;html=1;" parent="1" vertex="1">
          <mxGeometry x="640" y="260" width="180" height="100" as="geometry" />
        </mxCell>
        <mxCell id="UHIjol0wDiYLH9RskCav-19" value="+file: File" style="text;strokeColor=none;fillColor=none;align=left;verticalAlign=top;spacingLeft=4;spacingRight=4;overflow=hidden;rotatable=0;points=[[0,0.5],[1,0.5]];portConstraint=eastwest;whiteSpace=wrap;html=1;" parent="UHIjol0wDiYLH9RskCav-18" vertex="1">
          <mxGeometry y="26" width="180" height="26" as="geometry" />
        </mxCell>
        <mxCell id="UHIjol0wDiYLH9RskCav-20" value="" style="line;strokeWidth=1;fillColor=none;align=left;verticalAlign=middle;spacingTop=-1;spacingLeft=3;spacingRight=3;rotatable=0;labelPosition=right;points=[];portConstraint=eastwest;strokeColor=inherit;" parent="UHIjol0wDiYLH9RskCav-18" vertex="1">
          <mxGeometry y="52" width="180" height="8" as="geometry" />
        </mxCell>
        <mxCell id="UHIjol0wDiYLH9RskCav-21" value="&lt;span class=&quot;hljs-operator&quot;&gt;+&lt;/span&gt; &lt;span class=&quot;hljs-variable&quot;&gt;saveUsers&lt;/span&gt;&lt;span class=&quot;hljs-punctuation&quot;&gt;(&lt;/span&gt;&lt;span class=&quot;hljs-variable&quot;&gt;users&lt;/span&gt;&lt;span class=&quot;hljs-operator&quot;&gt;:&lt;/span&gt; &lt;span class=&quot;hljs-built_in&quot;&gt;List&lt;/span&gt;&lt;span class=&quot;hljs-operator&quot;&gt;&amp;lt;&lt;/span&gt;&lt;span class=&quot;hljs-variable&quot;&gt;User&lt;/span&gt;&lt;span class=&quot;hljs-operator&quot;&gt;&amp;gt;&lt;/span&gt;&lt;span class=&quot;hljs-punctuation&quot;&gt;)&lt;/span&gt;&lt;div&gt;&lt;span class=&quot;hljs-punctuation&quot;&gt;&lt;span class=&quot;hljs-operator&quot;&gt;+&lt;/span&gt; &lt;span class=&quot;hljs-variable&quot;&gt;loadUsers&lt;/span&gt;&lt;span class=&quot;hljs-punctuation&quot;&gt;(&lt;/span&gt;&lt;span class=&quot;hljs-punctuation&quot;&gt;)&lt;/span&gt;&lt;span class=&quot;hljs-operator&quot;&gt;:&lt;/span&gt; &lt;span class=&quot;hljs-built_in&quot;&gt;List&lt;/span&gt;&lt;span class=&quot;hljs-operator&quot;&gt;&amp;lt;&lt;/span&gt;&lt;span class=&quot;hljs-variable&quot;&gt;User&lt;/span&gt;&lt;span class=&quot;hljs-operator&quot;&gt;&amp;gt;&lt;/span&gt;&lt;/span&gt;&lt;/div&gt;" style="text;strokeColor=none;fillColor=none;align=left;verticalAlign=top;spacingLeft=4;spacingRight=4;overflow=hidden;rotatable=0;points=[[0,0.5],[1,0.5]];portConstraint=eastwest;whiteSpace=wrap;html=1;" parent="UHIjol0wDiYLH9RskCav-18" vertex="1">
          <mxGeometry y="60" width="180" height="40" as="geometry" />
        </mxCell>
        <mxCell id="UHIjol0wDiYLH9RskCav-31" value="&lt;span class=&quot;hljs-variable&quot;&gt;Login&lt;/span&gt;" style="swimlane;fontStyle=1;align=center;verticalAlign=top;childLayout=stackLayout;horizontal=1;startSize=26;horizontalStack=0;resizeParent=1;resizeParentMax=0;resizeLast=0;collapsible=1;marginBottom=0;whiteSpace=wrap;html=1;" parent="1" vertex="1">
          <mxGeometry x="10" y="410" width="160" height="114" as="geometry" />
        </mxCell>
        <mxCell id="UHIjol0wDiYLH9RskCav-32" value="&lt;span class=&quot;hljs-operator&quot;&gt;-&lt;/span&gt; &lt;span class=&quot;hljs-variable&quot;&gt;email&lt;/span&gt;&lt;span class=&quot;hljs-operator&quot;&gt;:&lt;/span&gt; &lt;span class=&quot;hljs-built_in&quot;&gt;String&lt;/span&gt;&amp;nbsp;&lt;br&gt;&amp;nbsp;&lt;span class=&quot;hljs-operator&quot;&gt;-&lt;/span&gt; &lt;span class=&quot;hljs-variable&quot;&gt;password&lt;/span&gt;&lt;span class=&quot;hljs-operator&quot;&gt;:&lt;/span&gt; &lt;span class=&quot;hljs-built_in&quot;&gt;String&lt;/span&gt;&amp;nbsp;&lt;br&gt;&amp;nbsp;&lt;span class=&quot;hljs-operator&quot;&gt;-&lt;/span&gt; &lt;span class=&quot;hljs-variable&quot;&gt;file&lt;/span&gt;&lt;span class=&quot;hljs-operator&quot;&gt;:&lt;/span&gt; &lt;span class=&quot;hljs-built_in&quot;&gt;File&lt;/span&gt;" style="text;strokeColor=none;fillColor=none;align=left;verticalAlign=top;spacingLeft=4;spacingRight=4;overflow=hidden;rotatable=0;points=[[0,0.5],[1,0.5]];portConstraint=eastwest;whiteSpace=wrap;html=1;" parent="UHIjol0wDiYLH9RskCav-31" vertex="1">
          <mxGeometry y="26" width="160" height="54" as="geometry" />
        </mxCell>
        <mxCell id="UHIjol0wDiYLH9RskCav-33" value="" style="line;strokeWidth=1;fillColor=none;align=left;verticalAlign=middle;spacingTop=-1;spacingLeft=3;spacingRight=3;rotatable=0;labelPosition=right;points=[];portConstraint=eastwest;strokeColor=inherit;" parent="UHIjol0wDiYLH9RskCav-31" vertex="1">
          <mxGeometry y="80" width="160" height="8" as="geometry" />
        </mxCell>
        <mxCell id="UHIjol0wDiYLH9RskCav-34" value="&lt;span class=&quot;hljs-operator&quot;&gt;+&lt;/span&gt; &lt;span class=&quot;hljs-variable&quot;&gt;loggin&lt;/span&gt;&lt;span class=&quot;hljs-punctuation&quot;&gt;(&lt;/span&gt;&lt;span class=&quot;hljs-punctuation&quot;&gt;)&lt;/span&gt;&lt;span class=&quot;hljs-operator&quot;&gt;:&lt;/span&gt; &lt;span class=&quot;hljs-variable&quot;&gt;boolean&lt;/span&gt;" style="text;strokeColor=none;fillColor=none;align=left;verticalAlign=top;spacingLeft=4;spacingRight=4;overflow=hidden;rotatable=0;points=[[0,0.5],[1,0.5]];portConstraint=eastwest;whiteSpace=wrap;html=1;" parent="UHIjol0wDiYLH9RskCav-31" vertex="1">
          <mxGeometry y="88" width="160" height="26" as="geometry" />
        </mxCell>
        <mxCell id="UHIjol0wDiYLH9RskCav-35" value="&lt;span class=&quot;hljs-variable&quot;&gt;PasswordHasher&lt;/span&gt;" style="swimlane;fontStyle=1;align=center;verticalAlign=top;childLayout=stackLayout;horizontal=1;startSize=26;horizontalStack=0;resizeParent=1;resizeParentMax=0;resizeLast=0;collapsible=1;marginBottom=0;whiteSpace=wrap;html=1;" parent="1" vertex="1">
          <mxGeometry x="-250" y="430" width="170" height="60" as="geometry" />
        </mxCell>
        <mxCell id="UHIjol0wDiYLH9RskCav-37" value="" style="line;strokeWidth=1;fillColor=none;align=left;verticalAlign=middle;spacingTop=-1;spacingLeft=3;spacingRight=3;rotatable=0;labelPosition=right;points=[];portConstraint=eastwest;strokeColor=inherit;" parent="UHIjol0wDiYLH9RskCav-35" vertex="1">
          <mxGeometry y="26" width="170" height="8" as="geometry" />
        </mxCell>
        <mxCell id="UHIjol0wDiYLH9RskCav-38" value="&lt;span class=&quot;hljs-operator&quot;&gt;+&lt;/span&gt; &lt;span class=&quot;hljs-variable&quot;&gt;hasher&lt;/span&gt;&lt;span class=&quot;hljs-punctuation&quot;&gt;(&lt;/span&gt;&lt;span class=&quot;hljs-variable&quot;&gt;pass&lt;/span&gt;&lt;span class=&quot;hljs-operator&quot;&gt;:&lt;/span&gt; &lt;span class=&quot;hljs-built_in&quot;&gt;String&lt;/span&gt;&lt;span class=&quot;hljs-punctuation&quot;&gt;)&lt;/span&gt;&lt;span class=&quot;hljs-operator&quot;&gt;:&lt;/span&gt; &lt;span class=&quot;hljs-built_in&quot;&gt;String&lt;/span&gt;" style="text;strokeColor=none;fillColor=none;align=left;verticalAlign=top;spacingLeft=4;spacingRight=4;overflow=hidden;rotatable=0;points=[[0,0.5],[1,0.5]];portConstraint=eastwest;whiteSpace=wrap;html=1;" parent="UHIjol0wDiYLH9RskCav-35" vertex="1">
          <mxGeometry y="34" width="170" height="26" as="geometry" />
        </mxCell>
        <mxCell id="UHIjol0wDiYLH9RskCav-39" value="&lt;span class=&quot;hljs-variable&quot;&gt;Logout&lt;/span&gt;" style="swimlane;fontStyle=1;align=center;verticalAlign=top;childLayout=stackLayout;horizontal=1;startSize=26;horizontalStack=0;resizeParent=1;resizeParentMax=0;resizeLast=0;collapsible=1;marginBottom=0;whiteSpace=wrap;html=1;" parent="1" vertex="1">
          <mxGeometry x="640" y="130" width="160" height="94" as="geometry" />
        </mxCell>
        <mxCell id="UHIjol0wDiYLH9RskCav-40" value="&lt;span class=&quot;hljs-operator&quot;&gt;-&lt;/span&gt;&amp;nbsp;&lt;span class=&quot;hljs-variable&quot;&gt;email&lt;/span&gt;&lt;span class=&quot;hljs-operator&quot;&gt;:&lt;/span&gt;&amp;nbsp;&lt;span class=&quot;hljs-built_in&quot;&gt;String&lt;/span&gt;&amp;nbsp;&lt;br&gt;&amp;nbsp;&lt;span class=&quot;hljs-operator&quot;&gt;-&lt;/span&gt;&amp;nbsp;&lt;span class=&quot;hljs-variable&quot;&gt;file&lt;/span&gt;&lt;span class=&quot;hljs-operator&quot;&gt;:&lt;/span&gt;&amp;nbsp;&lt;span class=&quot;hljs-built_in&quot;&gt;File&lt;/span&gt;" style="text;strokeColor=none;fillColor=none;align=left;verticalAlign=top;spacingLeft=4;spacingRight=4;overflow=hidden;rotatable=0;points=[[0,0.5],[1,0.5]];portConstraint=eastwest;whiteSpace=wrap;html=1;" parent="UHIjol0wDiYLH9RskCav-39" vertex="1">
          <mxGeometry y="26" width="160" height="34" as="geometry" />
        </mxCell>
        <mxCell id="UHIjol0wDiYLH9RskCav-41" value="" style="line;strokeWidth=1;fillColor=none;align=left;verticalAlign=middle;spacingTop=-1;spacingLeft=3;spacingRight=3;rotatable=0;labelPosition=right;points=[];portConstraint=eastwest;strokeColor=inherit;" parent="UHIjol0wDiYLH9RskCav-39" vertex="1">
          <mxGeometry y="60" width="160" height="8" as="geometry" />
        </mxCell>
        <mxCell id="UHIjol0wDiYLH9RskCav-42" value="&lt;span class=&quot;hljs-operator&quot;&gt;+&lt;/span&gt; &lt;span class=&quot;hljs-variable&quot;&gt;logout&lt;/span&gt;&lt;span class=&quot;hljs-punctuation&quot;&gt;(&lt;/span&gt;&lt;span class=&quot;hljs-punctuation&quot;&gt;)&lt;/span&gt;" style="text;strokeColor=none;fillColor=none;align=left;verticalAlign=top;spacingLeft=4;spacingRight=4;overflow=hidden;rotatable=0;points=[[0,0.5],[1,0.5]];portConstraint=eastwest;whiteSpace=wrap;html=1;" parent="UHIjol0wDiYLH9RskCav-39" vertex="1">
          <mxGeometry y="68" width="160" height="26" as="geometry" />
        </mxCell>
        <mxCell id="UHIjol0wDiYLH9RskCav-43" value="Use" style="endArrow=open;endSize=12;dashed=1;html=1;rounded=0;exitX=1.013;exitY=0.209;exitDx=0;exitDy=0;exitPerimeter=0;" parent="1" source="UHIjol0wDiYLH9RskCav-9" edge="1">
          <mxGeometry width="160" relative="1" as="geometry">
            <mxPoint x="340" y="240" as="sourcePoint" />
            <mxPoint x="298" y="240" as="targetPoint" />
            <Array as="points" />
          </mxGeometry>
        </mxCell>
        <mxCell id="UHIjol0wDiYLH9RskCav-55" value="" style="endArrow=open;endFill=1;endSize=12;html=1;rounded=0;exitX=1.013;exitY=0.023;exitDx=0;exitDy=0;exitPerimeter=0;entryX=0.006;entryY=0.923;entryDx=0;entryDy=0;entryPerimeter=0;" parent="1" source="UHIjol0wDiYLH9RskCav-7" target="UHIjol0wDiYLH9RskCav-2" edge="1">
          <mxGeometry width="160" relative="1" as="geometry">
            <mxPoint x="90" y="320" as="sourcePoint" />
            <mxPoint x="250" y="320" as="targetPoint" />
          </mxGeometry>
        </mxCell>
        <mxCell id="UHIjol0wDiYLH9RskCav-59" style="edgeStyle=orthogonalEdgeStyle;rounded=0;orthogonalLoop=1;jettySize=auto;html=1;exitX=0.25;exitY=0;exitDx=0;exitDy=0;entryX=0.997;entryY=0.321;entryDx=0;entryDy=0;entryPerimeter=0;" parent="1" source="UHIjol0wDiYLH9RskCav-1" target="UHIjol0wDiYLH9RskCav-15" edge="1">
          <mxGeometry relative="1" as="geometry">
            <Array as="points">
              <mxPoint x="360" y="-10" />
              <mxPoint x="360" y="-87" />
            </Array>
          </mxGeometry>
        </mxCell>
        <mxCell id="UHIjol0wDiYLH9RskCav-60" style="edgeStyle=orthogonalEdgeStyle;rounded=0;orthogonalLoop=1;jettySize=auto;html=1;exitX=0;exitY=0.25;exitDx=0;exitDy=0;entryX=1;entryY=0.25;entryDx=0;entryDy=0;" parent="1" source="UHIjol0wDiYLH9RskCav-31" target="UHIjol0wDiYLH9RskCav-35" edge="1">
          <mxGeometry relative="1" as="geometry">
            <Array as="points">
              <mxPoint x="10" y="445" />
            </Array>
          </mxGeometry>
        </mxCell>
        <mxCell id="UHIjol0wDiYLH9RskCav-61" style="edgeStyle=orthogonalEdgeStyle;rounded=0;orthogonalLoop=1;jettySize=auto;html=1;exitX=1;exitY=0.5;exitDx=0;exitDy=0;entryX=0.483;entryY=1.014;entryDx=0;entryDy=0;entryPerimeter=0;" parent="1" source="UHIjol0wDiYLH9RskCav-34" target="UHIjol0wDiYLH9RskCav-4" edge="1">
          <mxGeometry relative="1" as="geometry">
            <Array as="points">
              <mxPoint x="430" y="481" />
            </Array>
          </mxGeometry>
        </mxCell>
        <mxCell id="UHIjol0wDiYLH9RskCav-62" style="edgeStyle=orthogonalEdgeStyle;rounded=0;orthogonalLoop=1;jettySize=auto;html=1;exitX=0;exitY=0.5;exitDx=0;exitDy=0;" parent="1" source="UHIjol0wDiYLH9RskCav-42" edge="1">
          <mxGeometry relative="1" as="geometry">
            <mxPoint x="572" y="210" as="targetPoint" />
          </mxGeometry>
        </mxCell>
        <mxCell id="UHIjol0wDiYLH9RskCav-64" value="" style="endArrow=diamondThin;endFill=0;endSize=24;html=1;rounded=0;exitX=0;exitY=0.5;exitDx=0;exitDy=0;entryX=1;entryY=0.5;entryDx=0;entryDy=0;" parent="1" source="UHIjol0wDiYLH9RskCav-19" target="UHIjol0wDiYLH9RskCav-4" edge="1">
          <mxGeometry width="160" relative="1" as="geometry">
            <mxPoint x="90" y="230" as="sourcePoint" />
            <mxPoint x="250" y="230" as="targetPoint" />
          </mxGeometry>
        </mxCell>
        <mxCell id="gmmMZok-8vlZHrC-qcbb-1" value="ProfileMnagment" style="swimlane;fontStyle=1;align=center;verticalAlign=top;childLayout=stackLayout;horizontal=1;startSize=26;horizontalStack=0;resizeParent=1;resizeParentMax=0;resizeLast=0;collapsible=1;marginBottom=0;whiteSpace=wrap;html=1;" parent="1" vertex="1">
          <mxGeometry x="620" y="460" width="200" height="210" as="geometry" />
        </mxCell>
        <mxCell id="gmmMZok-8vlZHrC-qcbb-2" value="&lt;div&gt;-profileLabel :Jlabel&lt;/div&gt;&lt;div&gt;-coverLabel :Jlabel&lt;/div&gt;&lt;div&gt;-bioField :JTextField&lt;/div&gt;&lt;div&gt;-comboBox :JComboBox&amp;lt;String&amp;gt;&lt;br&gt;&lt;/div&gt;" style="text;strokeColor=none;fillColor=none;align=left;verticalAlign=top;spacingLeft=4;spacingRight=4;overflow=hidden;rotatable=0;points=[[0,0.5],[1,0.5]];portConstraint=eastwest;whiteSpace=wrap;html=1;" parent="gmmMZok-8vlZHrC-qcbb-1" vertex="1">
          <mxGeometry y="26" width="200" height="84" as="geometry" />
        </mxCell>
        <mxCell id="gmmMZok-8vlZHrC-qcbb-3" value="" style="line;strokeWidth=1;fillColor=none;align=left;verticalAlign=middle;spacingTop=-1;spacingLeft=3;spacingRight=3;rotatable=0;labelPosition=right;points=[];portConstraint=eastwest;strokeColor=inherit;" parent="gmmMZok-8vlZHrC-qcbb-1" vertex="1">
          <mxGeometry y="110" width="200" height="8" as="geometry" />
        </mxCell>
        <mxCell id="gmmMZok-8vlZHrC-qcbb-4" value="&lt;div&gt;+initComponents () : Void&lt;/div&gt;&lt;div&gt;+ handleActio (action :String ): Void&lt;/div&gt;&lt;div&gt;+updatePhoto(Label :Jlabel) :Void&lt;/div&gt;&lt;div&gt;+updateBio(): Void&lt;/div&gt;&lt;div&gt;+updatePassword () :void&lt;/div&gt;&lt;div&gt;&lt;br&gt;&lt;/div&gt;&lt;div&gt;&lt;br&gt;&lt;/div&gt;&lt;div&gt;&lt;br&gt;&lt;/div&gt;" style="text;strokeColor=none;fillColor=none;align=left;verticalAlign=top;spacingLeft=4;spacingRight=4;overflow=hidden;rotatable=0;points=[[0,0.5],[1,0.5]];portConstraint=eastwest;whiteSpace=wrap;html=1;" parent="gmmMZok-8vlZHrC-qcbb-1" vertex="1">
          <mxGeometry y="118" width="200" height="92" as="geometry" />
        </mxCell>
        <mxCell id="EdCF1ueBECbVvoFRCu4A-10" value="Use" style="endArrow=open;endSize=12;dashed=1;html=1;rounded=0;entryX=0.741;entryY=1.007;entryDx=0;entryDy=0;entryPerimeter=0;exitX=0.72;exitY=0.007;exitDx=0;exitDy=0;exitPerimeter=0;" parent="1" source="VHDfPCeeZi7txXb4ZIZe-5" target="UHIjol0wDiYLH9RskCav-4" edge="1">
          <mxGeometry width="160" relative="1" as="geometry">
            <mxPoint x="300" y="550" as="sourcePoint" />
            <mxPoint x="460" y="550" as="targetPoint" />
          </mxGeometry>
        </mxCell>
        <mxCell id="VHDfPCeeZi7txXb4ZIZe-1" value="Content" style="swimlane;fontStyle=1;align=center;verticalAlign=top;childLayout=stackLayout;horizontal=1;startSize=26;horizontalStack=0;resizeParent=1;resizeParentMax=0;resizeLast=0;collapsible=1;marginBottom=0;whiteSpace=wrap;html=1;" parent="1" vertex="1">
          <mxGeometry x="-30" y="560" width="200" height="250" as="geometry" />
        </mxCell>
        <mxCell id="VHDfPCeeZi7txXb4ZIZe-2" value="&lt;div&gt;- contentId :String&lt;/div&gt;&lt;div&gt;-autherId : String&lt;/div&gt;&lt;div&gt;-content : String &lt;br&gt;&lt;/div&gt;&lt;div&gt;-image : String &lt;br&gt;&lt;/div&gt;&lt;div&gt;-timestamp : localDateTime&lt;/div&gt;&lt;div&gt;-contentType : String&lt;br&gt;&lt;/div&gt;" style="text;strokeColor=none;fillColor=none;align=left;verticalAlign=top;spacingLeft=4;spacingRight=4;overflow=hidden;rotatable=0;points=[[0,0.5],[1,0.5]];portConstraint=eastwest;whiteSpace=wrap;html=1;" parent="VHDfPCeeZi7txXb4ZIZe-1" vertex="1">
          <mxGeometry y="26" width="200" height="104" as="geometry" />
        </mxCell>
        <mxCell id="VHDfPCeeZi7txXb4ZIZe-3" value="" style="line;strokeWidth=1;fillColor=none;align=left;verticalAlign=middle;spacingTop=-1;spacingLeft=3;spacingRight=3;rotatable=0;labelPosition=right;points=[];portConstraint=eastwest;strokeColor=inherit;" parent="VHDfPCeeZi7txXb4ZIZe-1" vertex="1">
          <mxGeometry y="130" width="200" height="8" as="geometry" />
        </mxCell>
        <mxCell id="VHDfPCeeZi7txXb4ZIZe-4" value="&lt;div&gt;+getContentId () :String&lt;/div&gt;&lt;div&gt;+getAutherId () : String&lt;/div&gt;&lt;div&gt;+getContent () : String&lt;/div&gt;&lt;div&gt;+getImagePath () : String&lt;/div&gt;&lt;div&gt;+getTimeStamp () : localDateTime&lt;/div&gt;&lt;div&gt;+getContentType() :String&lt;/div&gt;&lt;div&gt;&lt;br&gt;&lt;/div&gt;" style="text;strokeColor=none;fillColor=none;align=left;verticalAlign=top;spacingLeft=4;spacingRight=4;overflow=hidden;rotatable=0;points=[[0,0.5],[1,0.5]];portConstraint=eastwest;whiteSpace=wrap;html=1;" parent="VHDfPCeeZi7txXb4ZIZe-1" vertex="1">
          <mxGeometry y="138" width="200" height="112" as="geometry" />
        </mxCell>
        <mxCell id="VHDfPCeeZi7txXb4ZIZe-5" value="ContentManager" style="swimlane;fontStyle=1;align=center;verticalAlign=top;childLayout=stackLayout;horizontal=1;startSize=26;horizontalStack=0;resizeParent=1;resizeParentMax=0;resizeLast=0;collapsible=1;marginBottom=0;whiteSpace=wrap;html=1;" parent="1" vertex="1">
          <mxGeometry x="290" y="580" width="290" height="230" as="geometry" />
        </mxCell>
        <mxCell id="VHDfPCeeZi7txXb4ZIZe-6" value="&lt;div&gt;- contents : List&amp;lt;Content&amp;gt;&lt;/div&gt;&lt;div&gt;-blockedUsers : List&amp;lt;String&amp;gt;&lt;/div&gt;&lt;div&gt;&lt;br&gt;&lt;/div&gt;" style="text;strokeColor=none;fillColor=none;align=left;verticalAlign=top;spacingLeft=4;spacingRight=4;overflow=hidden;rotatable=0;points=[[0,0.5],[1,0.5]];portConstraint=eastwest;whiteSpace=wrap;html=1;" parent="VHDfPCeeZi7txXb4ZIZe-5" vertex="1">
          <mxGeometry y="26" width="290" height="44" as="geometry" />
        </mxCell>
        <mxCell id="VHDfPCeeZi7txXb4ZIZe-7" value="" style="line;strokeWidth=1;fillColor=none;align=left;verticalAlign=middle;spacingTop=-1;spacingLeft=3;spacingRight=3;rotatable=0;labelPosition=right;points=[];portConstraint=eastwest;strokeColor=inherit;" parent="VHDfPCeeZi7txXb4ZIZe-5" vertex="1">
          <mxGeometry y="70" width="290" height="8" as="geometry" />
        </mxCell>
        <mxCell id="VHDfPCeeZi7txXb4ZIZe-8" value="&lt;div&gt;+LoadContents () :void&lt;/div&gt;&lt;div&gt;+saveContent () : void&lt;/div&gt;&lt;div&gt;+getAllContents () : List &amp;lt;Content&amp;gt;&lt;/div&gt;&lt;div&gt;+createPost () : void&lt;/div&gt;&lt;div&gt;+createStory () : void&lt;/div&gt;&lt;div&gt;+deleteExpiredStories () : void&lt;/div&gt;&lt;div&gt;+blockUser (iserId :String) : void&lt;/div&gt;&lt;div&gt;+unblockUser(userId : String) : void&lt;/div&gt;&lt;div&gt;+getVisibleContent( userId :String) : List &amp;lt;Content&amp;gt;&lt;br&gt;&lt;/div&gt;" style="text;strokeColor=none;fillColor=none;align=left;verticalAlign=top;spacingLeft=4;spacingRight=4;overflow=hidden;rotatable=0;points=[[0,0.5],[1,0.5]];portConstraint=eastwest;whiteSpace=wrap;html=1;" parent="VHDfPCeeZi7txXb4ZIZe-5" vertex="1">
          <mxGeometry y="78" width="290" height="152" as="geometry" />
        </mxCell>
        <mxCell id="VHDfPCeeZi7txXb4ZIZe-9" value="" style="endArrow=diamondThin;endFill=1;endSize=24;html=1;rounded=0;fontSize=12;curved=1;exitX=0;exitY=0.5;exitDx=0;exitDy=0;entryX=1.006;entryY=0.398;entryDx=0;entryDy=0;entryPerimeter=0;" parent="1" source="VHDfPCeeZi7txXb4ZIZe-6" target="VHDfPCeeZi7txXb4ZIZe-2" edge="1">
          <mxGeometry width="160" relative="1" as="geometry">
            <mxPoint x="70" y="850" as="sourcePoint" />
            <mxPoint x="160" y="798" as="targetPoint" />
          </mxGeometry>
        </mxCell>
        <mxCell id="VHDfPCeeZi7txXb4ZIZe-10" style="edgeStyle=none;curved=1;rounded=0;orthogonalLoop=1;jettySize=auto;html=1;exitX=0.75;exitY=0;exitDx=0;exitDy=0;fontSize=12;startSize=8;endSize=8;" parent="1" source="VHDfPCeeZi7txXb4ZIZe-1" target="VHDfPCeeZi7txXb4ZIZe-1" edge="1">
          <mxGeometry relative="1" as="geometry" />
        </mxCell>
        <mxCell id="VHDfPCeeZi7txXb4ZIZe-12" value="&lt;i&gt;DataBase&lt;/i&gt;" style="swimlane;fontStyle=1;align=center;verticalAlign=top;childLayout=stackLayout;horizontal=1;startSize=26;horizontalStack=0;resizeParent=1;resizeParentMax=0;resizeLast=0;collapsible=1;marginBottom=0;whiteSpace=wrap;html=1;" parent="1" vertex="1">
          <mxGeometry x="425" y="890" width="210" height="150" as="geometry" />
        </mxCell>
        <mxCell id="VHDfPCeeZi7txXb4ZIZe-13" value="&lt;div&gt;&lt;br&gt;&lt;/div&gt;" style="text;strokeColor=none;fillColor=none;align=left;verticalAlign=top;spacingLeft=4;spacingRight=4;overflow=hidden;rotatable=0;points=[[0,0.5],[1,0.5]];portConstraint=eastwest;whiteSpace=wrap;html=1;" parent="VHDfPCeeZi7txXb4ZIZe-12" vertex="1">
          <mxGeometry y="26" width="210" height="14" as="geometry" />
        </mxCell>
        <mxCell id="VHDfPCeeZi7txXb4ZIZe-14" value="" style="line;strokeWidth=1;fillColor=none;align=left;verticalAlign=middle;spacingTop=-1;spacingLeft=3;spacingRight=3;rotatable=0;labelPosition=right;points=[];portConstraint=eastwest;strokeColor=inherit;" parent="VHDfPCeeZi7txXb4ZIZe-12" vertex="1">
          <mxGeometry y="40" width="210" height="8" as="geometry" />
        </mxCell>
        <mxCell id="VHDfPCeeZi7txXb4ZIZe-15" value="&lt;div&gt;+save(List&amp;lt;T&amp;gt;)&lt;/div&gt;" style="text;strokeColor=none;fillColor=none;align=left;verticalAlign=top;spacingLeft=4;spacingRight=4;overflow=hidden;rotatable=0;points=[[0,0.5],[1,0.5]];portConstraint=eastwest;whiteSpace=wrap;html=1;" parent="VHDfPCeeZi7txXb4ZIZe-12" vertex="1">
          <mxGeometry y="48" width="210" height="102" as="geometry" />
        </mxCell>
        <mxCell id="VHDfPCeeZi7txXb4ZIZe-17" value="" style="endArrow=diamondThin;endFill=1;endSize=24;html=1;rounded=0;fontSize=12;curved=1;exitX=0.5;exitY=0;exitDx=0;exitDy=0;entryX=0.827;entryY=1.01;entryDx=0;entryDy=0;entryPerimeter=0;" parent="1" source="VHDfPCeeZi7txXb4ZIZe-12" target="VHDfPCeeZi7txXb4ZIZe-8" edge="1">
          <mxGeometry width="160" relative="1" as="geometry">
            <mxPoint x="370" y="840" as="sourcePoint" />
            <mxPoint x="530" y="840" as="targetPoint" />
          </mxGeometry>
        </mxCell>
        <mxCell id="VHDfPCeeZi7txXb4ZIZe-19" value="newsFeed" style="swimlane;fontStyle=1;align=center;verticalAlign=top;childLayout=stackLayout;horizontal=1;startSize=26;horizontalStack=0;resizeParent=1;resizeParentMax=0;resizeLast=0;collapsible=1;marginBottom=0;whiteSpace=wrap;html=1;" parent="1" vertex="1">
          <mxGeometry x="130" y="890" width="270" height="300" as="geometry" />
        </mxCell>
        <mxCell id="VHDfPCeeZi7txXb4ZIZe-20" value="&lt;div&gt;-file : File&lt;/div&gt;&lt;div&gt;-contentArea : JtextArea&lt;/div&gt;&lt;div&gt;-postButton : JButton&lt;/div&gt;&lt;div&gt;-refreshButton : JButton&lt;/div&gt;&lt;div&gt;-profileButton : JButton&lt;/div&gt;&lt;div&gt;-showFriendButton : JButton&lt;/div&gt;&lt;div&gt;-showFriendSuggestionButton :Button&lt;/div&gt;&lt;div&gt;-addButton : JButton&lt;/div&gt;&lt;div&gt;-postListModel : DefaultListModel&amp;lt;String&amp;gt;&lt;/div&gt;&lt;div&gt;-storyListModel : DefaultListModel&amp;lt;String&amp;gt;&lt;/div&gt;&lt;div&gt;-postList : Jlist &amp;lt;String&amp;gt;&lt;/div&gt;&lt;div&gt;-storyList : Jlist &amp;lt;String&amp;gt;&lt;/div&gt;&lt;div&gt;-contentManager : ContentManager&lt;br&gt; &lt;/div&gt;&lt;div&gt;&lt;br&gt;&lt;/div&gt;" style="text;strokeColor=none;fillColor=none;align=left;verticalAlign=top;spacingLeft=4;spacingRight=4;overflow=hidden;rotatable=0;points=[[0,0.5],[1,0.5]];portConstraint=eastwest;whiteSpace=wrap;html=1;" parent="VHDfPCeeZi7txXb4ZIZe-19" vertex="1">
          <mxGeometry y="26" width="270" height="204" as="geometry" />
        </mxCell>
        <mxCell id="VHDfPCeeZi7txXb4ZIZe-21" value="" style="line;strokeWidth=1;fillColor=none;align=left;verticalAlign=middle;spacingTop=-1;spacingLeft=3;spacingRight=3;rotatable=0;labelPosition=right;points=[];portConstraint=eastwest;strokeColor=inherit;" parent="VHDfPCeeZi7txXb4ZIZe-19" vertex="1">
          <mxGeometry y="230" width="270" height="8" as="geometry" />
        </mxCell>
        <mxCell id="VHDfPCeeZi7txXb4ZIZe-22" value="&lt;div&gt;+populatesampleData() : void&lt;/div&gt;&lt;div&gt;+loadPostsFormatContentManager() : string[]&lt;/div&gt;&lt;div&gt;+loadstoriesFormatContentManager() : String[]&lt;/div&gt;&lt;div&gt;&lt;br&gt;&lt;/div&gt;" style="text;strokeColor=none;fillColor=none;align=left;verticalAlign=top;spacingLeft=4;spacingRight=4;overflow=hidden;rotatable=0;points=[[0,0.5],[1,0.5]];portConstraint=eastwest;whiteSpace=wrap;html=1;" parent="VHDfPCeeZi7txXb4ZIZe-19" vertex="1">
          <mxGeometry y="238" width="270" height="62" as="geometry" />
        </mxCell>
        <mxCell id="VHDfPCeeZi7txXb4ZIZe-23" value="" style="endArrow=diamondThin;endFill=1;endSize=24;html=1;rounded=0;fontSize=12;curved=1;exitX=0.241;exitY=1.01;exitDx=0;exitDy=0;exitPerimeter=0;" parent="1" source="VHDfPCeeZi7txXb4ZIZe-8" edge="1">
          <mxGeometry width="160" relative="1" as="geometry">
            <mxPoint x="170" y="860" as="sourcePoint" />
            <mxPoint x="360" y="890" as="targetPoint" />
            <Array as="points" />
          </mxGeometry>
        </mxCell>
        <mxCell id="VHDfPCeeZi7txXb4ZIZe-25" value="signinWindow" style="swimlane;fontStyle=1;align=center;verticalAlign=top;childLayout=stackLayout;horizontal=1;startSize=26;horizontalStack=0;resizeParent=1;resizeParentMax=0;resizeLast=0;collapsible=1;marginBottom=0;whiteSpace=wrap;html=1;" parent="1" vertex="1">
          <mxGeometry x="-290" y="70" width="190" height="130" as="geometry" />
        </mxCell>
        <mxCell id="VHDfPCeeZi7txXb4ZIZe-26" value="&lt;div&gt;-email :JTextField&lt;/div&gt;&lt;div&gt;-username:JTextField&lt;/div&gt;&lt;div&gt;-password:JTextField&lt;/div&gt;&lt;div&gt;&lt;br&gt;&lt;/div&gt;" style="text;strokeColor=none;fillColor=none;align=left;verticalAlign=top;spacingLeft=4;spacingRight=4;overflow=hidden;rotatable=0;points=[[0,0.5],[1,0.5]];portConstraint=eastwest;whiteSpace=wrap;html=1;" parent="VHDfPCeeZi7txXb4ZIZe-25" vertex="1">
          <mxGeometry y="26" width="190" height="64" as="geometry" />
        </mxCell>
        <mxCell id="VHDfPCeeZi7txXb4ZIZe-27" value="" style="line;strokeWidth=1;fillColor=none;align=left;verticalAlign=middle;spacingTop=-1;spacingLeft=3;spacingRight=3;rotatable=0;labelPosition=right;points=[];portConstraint=eastwest;strokeColor=inherit;" parent="VHDfPCeeZi7txXb4ZIZe-25" vertex="1">
          <mxGeometry y="90" width="190" height="8" as="geometry" />
        </mxCell>
        <mxCell id="VHDfPCeeZi7txXb4ZIZe-28" value="&lt;div&gt;+signinActionPerformed() :void&lt;/div&gt;&lt;div&gt;&lt;br&gt;&lt;/div&gt;" style="text;strokeColor=none;fillColor=none;align=left;verticalAlign=top;spacingLeft=4;spacingRight=4;overflow=hidden;rotatable=0;points=[[0,0.5],[1,0.5]];portConstraint=eastwest;whiteSpace=wrap;html=1;" parent="VHDfPCeeZi7txXb4ZIZe-25" vertex="1">
          <mxGeometry y="98" width="190" height="32" as="geometry" />
        </mxCell>
        <mxCell id="VHDfPCeeZi7txXb4ZIZe-29" value="GroupFrontEnd" style="swimlane;fontStyle=1;align=center;verticalAlign=top;childLayout=stackLayout;horizontal=1;startSize=26;horizontalStack=0;resizeParent=1;resizeParentMax=0;resizeLast=0;collapsible=1;marginBottom=0;whiteSpace=wrap;html=1;" parent="1" vertex="1">
          <mxGeometry x="-370" y="660" width="240" height="180" as="geometry" />
        </mxCell>
        <mxCell id="VHDfPCeeZi7txXb4ZIZe-30" value="&lt;div&gt;-groupListModel: DefaultListModel&amp;lt;String&amp;gt;&amp;nbsp;&lt;/div&gt;&lt;div&gt;-groupJList :&amp;nbsp; JList &amp;lt;String&amp;gt;&lt;/div&gt;&lt;div&gt;-currentGroup :BackEnd&lt;/div&gt;&lt;div&gt;-currentUser : User&lt;br&gt; &lt;/div&gt;" style="text;strokeColor=none;fillColor=none;align=left;verticalAlign=top;spacingLeft=4;spacingRight=4;overflow=hidden;rotatable=0;points=[[0,0.5],[1,0.5]];portConstraint=eastwest;whiteSpace=wrap;html=1;" parent="VHDfPCeeZi7txXb4ZIZe-29" vertex="1">
          <mxGeometry y="26" width="240" height="74" as="geometry" />
        </mxCell>
        <mxCell id="VHDfPCeeZi7txXb4ZIZe-31" value="" style="line;strokeWidth=1;fillColor=none;align=left;verticalAlign=middle;spacingTop=-1;spacingLeft=3;spacingRight=3;rotatable=0;labelPosition=right;points=[];portConstraint=eastwest;strokeColor=inherit;" parent="VHDfPCeeZi7txXb4ZIZe-29" vertex="1">
          <mxGeometry y="100" width="240" height="8" as="geometry" />
        </mxCell>
        <mxCell id="VHDfPCeeZi7txXb4ZIZe-32" value="&lt;div&gt;+UpdatePhotoActionPerformed() :void&lt;/div&gt;&lt;div&gt;+updateNameActionPerformed() :void&lt;/div&gt;&lt;div&gt;+updateDescriptionActionPerformed() : void&lt;/div&gt;&lt;div&gt;+DeleteGroupActionPerformed() :void&lt;/div&gt;&lt;div&gt;&lt;br&gt;&lt;/div&gt;" style="text;strokeColor=none;fillColor=none;align=left;verticalAlign=top;spacingLeft=4;spacingRight=4;overflow=hidden;rotatable=0;points=[[0,0.5],[1,0.5]];portConstraint=eastwest;whiteSpace=wrap;html=1;" parent="VHDfPCeeZi7txXb4ZIZe-29" vertex="1">
          <mxGeometry y="108" width="240" height="72" as="geometry" />
        </mxCell>
        <mxCell id="VHDfPCeeZi7txXb4ZIZe-33" value="BackEnd" style="swimlane;fontStyle=1;align=center;verticalAlign=top;childLayout=stackLayout;horizontal=1;startSize=26;horizontalStack=0;resizeParent=1;resizeParentMax=0;resizeLast=0;collapsible=1;marginBottom=0;whiteSpace=wrap;html=1;" parent="1" vertex="1">
          <mxGeometry x="-575" y="224" width="300" height="370" as="geometry" />
        </mxCell>
        <mxCell id="VHDfPCeeZi7txXb4ZIZe-34" value="&lt;div&gt;-name :String&lt;/div&gt;&lt;div&gt;-description :String&lt;/div&gt;&lt;div&gt;-groupPhoto : String&lt;/div&gt;&lt;div&gt;-primaryAdmin : String&lt;/div&gt;&lt;div&gt;-admins : List&amp;lt;String&amp;gt;&lt;/div&gt;&lt;div&gt;-members : List&amp;lt;String&amp;gt;&lt;/div&gt;&lt;div&gt;posts : List&amp;lt;Posts&amp;gt;&lt;br&gt;&lt;/div&gt;&lt;div&gt;&lt;br&gt;&lt;/div&gt;" style="text;strokeColor=none;fillColor=none;align=left;verticalAlign=top;spacingLeft=4;spacingRight=4;overflow=hidden;rotatable=0;points=[[0,0.5],[1,0.5]];portConstraint=eastwest;whiteSpace=wrap;html=1;" parent="VHDfPCeeZi7txXb4ZIZe-33" vertex="1">
          <mxGeometry y="26" width="300" height="114" as="geometry" />
        </mxCell>
        <mxCell id="VHDfPCeeZi7txXb4ZIZe-35" value="" style="line;strokeWidth=1;fillColor=none;align=left;verticalAlign=middle;spacingTop=-1;spacingLeft=3;spacingRight=3;rotatable=0;labelPosition=right;points=[];portConstraint=eastwest;strokeColor=inherit;" parent="VHDfPCeeZi7txXb4ZIZe-33" vertex="1">
          <mxGeometry y="140" width="300" height="8" as="geometry" />
        </mxCell>
        <mxCell id="VHDfPCeeZi7txXb4ZIZe-36" value="&lt;div&gt;+getPrimaryAdmin() : String&lt;/div&gt;&lt;div&gt;+getotherAdmins : List&amp;lt;String&amp;gt;&lt;/div&gt;&lt;div&gt;+getName () : String&lt;/div&gt;&lt;div&gt;+getGroupPhoto () : String&lt;/div&gt;&lt;div&gt;+getAdmins() : Stiring&lt;/div&gt;&lt;div&gt;+getMembers () : List&amp;lt;String&amp;gt;&lt;/div&gt;&lt;div&gt;+getPosts() : List&amp;lt;String&amp;gt;&lt;/div&gt;&lt;div&gt;+promoteToAdmin(userId :String ):boolean&lt;/div&gt;&lt;div&gt;+demoteToMember (userId : String) :boolean&lt;/div&gt;&lt;div&gt;+addpost(post : Posts) : boolean&lt;/div&gt;&lt;div&gt;+editPost(postId : String , newContent: String):boolean&lt;/div&gt;&lt;div&gt;+deletepost(postId : String) : boolean&lt;br&gt;&lt;/div&gt;&lt;div&gt;+removeMember (userId : User) : boolean&lt;br&gt;&lt;/div&gt;&lt;div&gt;+deleteGroup () :boolean&lt;br&gt;&lt;/div&gt;&lt;div&gt;&lt;br&gt;&lt;/div&gt;&lt;div&gt;&lt;br&gt;&lt;/div&gt;" style="text;strokeColor=none;fillColor=none;align=left;verticalAlign=top;spacingLeft=4;spacingRight=4;overflow=hidden;rotatable=0;points=[[0,0.5],[1,0.5]];portConstraint=eastwest;whiteSpace=wrap;html=1;" parent="VHDfPCeeZi7txXb4ZIZe-33" vertex="1">
          <mxGeometry y="148" width="300" height="222" as="geometry" />
        </mxCell>
        <mxCell id="VHDfPCeeZi7txXb4ZIZe-37" value="Posts" style="swimlane;fontStyle=1;align=center;verticalAlign=top;childLayout=stackLayout;horizontal=1;startSize=26;horizontalStack=0;resizeParent=1;resizeParentMax=0;resizeLast=0;collapsible=1;marginBottom=0;whiteSpace=wrap;html=1;" parent="1" vertex="1">
          <mxGeometry x="-520" y="-60" width="200" height="200" as="geometry" />
        </mxCell>
        <mxCell id="VHDfPCeeZi7txXb4ZIZe-38" value="&lt;div&gt;-postId : String&lt;/div&gt;&lt;div&gt;-autherId : String&lt;/div&gt;&lt;div&gt;-content : String&lt;/div&gt;&lt;div&gt;-timeStamp : LocalDateTime &lt;br&gt;&lt;/div&gt;" style="text;strokeColor=none;fillColor=none;align=left;verticalAlign=top;spacingLeft=4;spacingRight=4;overflow=hidden;rotatable=0;points=[[0,0.5],[1,0.5]];portConstraint=eastwest;whiteSpace=wrap;html=1;" parent="VHDfPCeeZi7txXb4ZIZe-37" vertex="1">
          <mxGeometry y="26" width="200" height="84" as="geometry" />
        </mxCell>
        <mxCell id="VHDfPCeeZi7txXb4ZIZe-39" value="" style="line;strokeWidth=1;fillColor=none;align=left;verticalAlign=middle;spacingTop=-1;spacingLeft=3;spacingRight=3;rotatable=0;labelPosition=right;points=[];portConstraint=eastwest;strokeColor=inherit;" parent="VHDfPCeeZi7txXb4ZIZe-37" vertex="1">
          <mxGeometry y="110" width="200" height="8" as="geometry" />
        </mxCell>
        <mxCell id="VHDfPCeeZi7txXb4ZIZe-40" value="&lt;div&gt;+getPostId () : String&lt;/div&gt;&lt;div&gt;+getAutherId () : String&lt;/div&gt;&lt;div&gt;+getContent () String&lt;/div&gt;&lt;div&gt;+setContent (content : String) : void&lt;/div&gt;&lt;div&gt;+getTimestamp () : LocalDateTime&lt;/div&gt;" style="text;strokeColor=none;fillColor=none;align=left;verticalAlign=top;spacingLeft=4;spacingRight=4;overflow=hidden;rotatable=0;points=[[0,0.5],[1,0.5]];portConstraint=eastwest;whiteSpace=wrap;html=1;" parent="VHDfPCeeZi7txXb4ZIZe-37" vertex="1">
          <mxGeometry y="118" width="200" height="82" as="geometry" />
        </mxCell>
        <mxCell id="VHDfPCeeZi7txXb4ZIZe-41" value="" style="endArrow=diamondThin;endFill=1;endSize=24;html=1;rounded=0;fontSize=12;curved=1;exitX=0.5;exitY=0;exitDx=0;exitDy=0;entryX=0.465;entryY=1.013;entryDx=0;entryDy=0;entryPerimeter=0;" parent="1" source="VHDfPCeeZi7txXb4ZIZe-33" target="VHDfPCeeZi7txXb4ZIZe-40" edge="1">
          <mxGeometry width="160" relative="1" as="geometry">
            <mxPoint x="-540" y="200" as="sourcePoint" />
            <mxPoint x="-380" y="200" as="targetPoint" />
          </mxGeometry>
        </mxCell>
        <mxCell id="VHDfPCeeZi7txXb4ZIZe-46" value="Use" style="endArrow=open;endSize=12;dashed=1;html=1;rounded=0;fontSize=12;curved=1;exitX=1.001;exitY=0.94;exitDx=0;exitDy=0;exitPerimeter=0;entryX=-0.006;entryY=0.741;entryDx=0;entryDy=0;entryPerimeter=0;" parent="1" source="VHDfPCeeZi7txXb4ZIZe-34" target="UHIjol0wDiYLH9RskCav-4" edge="1">
          <mxGeometry width="160" relative="1" as="geometry">
            <mxPoint x="-200" y="380" as="sourcePoint" />
            <mxPoint x="-40" y="380" as="targetPoint" />
          </mxGeometry>
        </mxCell>
        <mxCell id="VHDfPCeeZi7txXb4ZIZe-47" value="" style="endArrow=diamondThin;endFill=1;endSize=24;html=1;rounded=0;fontSize=12;curved=1;exitX=0.783;exitY=1.009;exitDx=0;exitDy=0;exitPerimeter=0;entryX=0.13;entryY=0.006;entryDx=0;entryDy=0;entryPerimeter=0;" parent="1" source="VHDfPCeeZi7txXb4ZIZe-36" target="VHDfPCeeZi7txXb4ZIZe-29" edge="1">
          <mxGeometry width="160" relative="1" as="geometry">
            <mxPoint x="-458.99999999999994" y="590" as="sourcePoint" />
            <mxPoint x="-390.2" y="711.56" as="targetPoint" />
          </mxGeometry>
        </mxCell>
      </root>
    </mxGraphModel>
  </diagram>
</mxfile>
